<svg width="41" height="41" viewBox="0 0 41 41" fill="none" xmlns="http://www.w3.org/2000/svg">
<rect width="41" height="41" fill="#E8E8E8"/>
<path d="M25.2682 32.0263H15.7317C14.6783 32.0263 13.8245 31.1896 13.8245 30.1572V10.8428C13.8245 9.81038 14.6783 8.97363 15.7317 8.97363H25.2682C26.3216 8.97363 27.1754 9.81038 27.1754 10.8428V30.1572C27.1754 31.1896 26.3216 32.0263 25.2682 32.0263Z" stroke="#5B5B5B" stroke-width="1.5" stroke-linecap="round" stroke-linejoin="round"/>
<path d="M22.0892 28.2876H18.9104" stroke="#5B5B5B" stroke-width="1.5" stroke-linecap="round" stroke-linejoin="round"/>
<path d="M20.4996 13.2373C20.8848 13.2373 21.1971 12.9311 21.1971 12.5533C21.1971 12.1756 20.8848 11.8694 20.4996 11.8694C20.1143 11.8694 19.802 12.1756 19.802 12.5533C19.802 12.9311 20.1143 13.2373 20.4996 13.2373Z" fill="#5B5B5B"/>
</svg>
