<svg width="41" height="41" viewBox="0 0 41 41" fill="none" xmlns="http://www.w3.org/2000/svg">
<rect width="41" height="41" fill="#E8E8E8"/>
<path d="M18.5367 25.7216C22.5636 25.7216 25.8281 22.5225 25.8281 18.5761C25.8281 14.6297 22.5636 11.4305 18.5367 11.4305C14.5098 11.4305 11.2454 14.6297 11.2454 18.5761C11.2454 22.5225 14.5098 25.7216 18.5367 25.7216Z" stroke="#5B5B5B" stroke-width="1.5"/>
<path d="M18.5367 25.7216C22.5636 25.7216 25.8281 22.5225 25.8281 18.5761C25.8281 14.6297 22.5636 11.4305 18.5367 11.4305C14.5098 11.4305 11.2454 14.6297 11.2454 18.5761C11.2454 22.5225 14.5098 25.7216 18.5367 25.7216Z" stroke="#5B5B5B" stroke-width="1.5"/>
<path d="M23.6924 23.6285L29.7543 29.5692" stroke="#5B5B5B" stroke-width="1.5" stroke-linecap="round"/>
</svg>
